<svg xmlns="http://www.w3.org/2000/svg" viewBox="0 0 700 450">  <rect width="700" height="450" fill="#f8fafc" rx="10" ry="10" />

<text x="350" y="40" font-family="Arial, sans-serif" font-size="22" font-weight="bold" text-anchor="middle" fill="#334155">
Technology Assessment Methodology
</text>

<g transform="translate(350, 220)">
<circle cx="0" cy="0" r="150" fill="#f0f9ff" stroke="#60a5fa" stroke-width="2" />

    <circle cx="0" cy="0" r="40" fill="#0284c7" />
<text x="0" y="5" font-family="Arial, sans-serif" font-size="14" font-weight="bold" text-anchor="middle" fill="#ffffff">
  MSS Tech
</text>
<text x="0" y="25" font-family="Arial, sans-serif" font-size="14" font-weight="bold" text-anchor="middle" fill="#ffffff">
  Assessment
</text>

    <g transform="rotate(-90)">
  <line x1="40" y1="0" x2="150" y2="0" stroke="#60a5fa" stroke-width="2" />
  <circle cx="150" cy="0" r="25" fill="#0284c7" />
  <text x="150" y="5" font-family="Arial, sans-serif" font-size="12" font-weight="bold" text-anchor="middle" fill="#ffffff">1</text>
</g>
<text x="0" y="-175" font-family="Arial, sans-serif" font-size="14" text-anchor="middle" fill="#334155">
  Background Research
</text>

    <g transform="rotate(-40)">
  <line x1="40" y1="0" x2="150" y2="0" stroke="#60a5fa" stroke-width="2" />
  <circle cx="150" cy="0" r="25" fill="#0284c7" />
  <text x="150" y="5" font-family="Arial, sans-serif" font-size="12" font-weight="bold" text-anchor="middle" fill="#ffffff">2</text>
</g>
<text x="110" y="-130" font-family="Arial, sans-serif" font-size="14" text-anchor="middle" fill="#334155">
  List Technologies
</text>

    <g transform="rotate(10)">
  <line x1="40" y1="0" x2="150" y2="0" stroke="#60a5fa" stroke-width="2" />
  <circle cx="150" cy="0" r="25" fill="#0284c7" />
  <text x="150" y="5" font-family="Arial, sans-serif" font-size="12" font-weight="bold" text-anchor="middle" fill="#ffffff">3</text>
</g>
<text x="170" y="-45" font-family="Arial, sans-serif" font-size="14" text-anchor="middle" fill="#334155">
  Group Unit Operations
</text>

    <g transform="rotate(60)">
  <line x1="40" y1="0" x2="150" y2="0" stroke="#60a5fa" stroke-width="2" />
  <circle cx="150" cy="0" r="25" fill="#0284c7" />
  <text x="150" y="5" font-family="Arial, sans-serif" font-size="12" font-weight="bold" text-anchor="middle" fill="#ffffff">4</text>
</g>
<text x="170" y="75" font-family="Arial, sans-serif" font-size="14" text-anchor="middle" fill="#334155">
  Calculate Tech Scores
</text>

    <g transform="rotate(110)">
  <line x1="40" y1="0" x2="150" y2="0" stroke="#60a5fa" stroke-width="2" />
  <circle cx="150" cy="0" r="25" fill="#0284c7" />
  <text x="150" y="5" font-family="Arial, sans-serif" font-size="12" font-weight="bold" text-anchor="middle" fill="#ffffff">5</text>
</g>
<text x="80" y="150" font-family="Arial, sans-serif" font-size="14" text-anchor="middle" fill="#334155">
  Develop Service Options
</text>

    <g transform="rotate(160)">
  <line x1="40" y1="0" x2="150" y2="0" stroke="#60a5fa" stroke-width="2" />
  <circle cx="150" cy="0" r="25" fill="#0284c7" />
  <text x="150" y="5" font-family="Arial, sans-serif" font-size="12" font-weight="bold" text-anchor="middle" fill="#ffffff">6</text>
</g>
<text x="-60" y="150" font-family="Arial, sans-serif" font-size="14" text-anchor="middle" fill="#334155">
  Calculate Option Scores
</text>

    <g transform="rotate(210)">
  <line x1="40" y1="0" x2="150" y2="0" stroke="#60a5fa" stroke-width="2" />
  <circle cx="150" cy="0" r="25" fill="#0284c7" />
  <text x="150" y="5" font-family="Arial, sans-serif" font-size="12" font-weight="bold" text-anchor="middle" fill="#ffffff">7</text>
</g>
<text x="-160" y="80" font-family="Arial, sans-serif" font-size="14" text-anchor="middle" fill="#334155">
  Classify Development Stages
</text>

</g>

<rect x="50" y="320" width="600" height="60" rx="5" ry="5" fill="#e0f2fe" stroke="#0284c7" stroke-width="1" />
<text x="350" y="340" font-family="Arial, sans-serif" font-size="14" font-weight="bold" text-anchor="middle" fill="#0284c7">
Assessment Criteria
</text>
<text x="350" y="365" font-family="Arial, sans-serif" font-size="14" text-anchor="middle" fill="#334155">
Cost • Energy Requirements • Technical Requirements • Institutional Requirements
</text>

<rect x="50" y="390" width="600" height="40" rx="5" ry="5" fill="#f0f9ff" stroke="#60a5fa" stroke-width="1" />
<text x="350" y="405" font-family="Arial, sans-serif" font-size="14" font-weight="bold" text-anchor="middle" fill="#60a5fa">
Contextual Dimension: Matching Technology Requirement Level (TRL) with Community Capacity Level (CCL) for Sustainable WATSAN 
</text>
</svg>  

